<?xml version="1.0" encoding="UTF-8"?>
<svg width="32" height="32" viewBox="0 0 32 32" fill="none" xmlns="http://www.w3.org/2000/svg">
  <path d="M6 4l2.16 24.12L16 28l7.84-1.88L26 4H6zm4.534 22.124l-.398-4.456h2.328l.398 4.456-2.328.004zm-.398-6.456h2.328l.398-4.456h-2.328l-.398 4.456zm4.398 2h-2.328l.398-4.456h2.328l-.398 4.456zm0-6.456h-2.328l-.398-4.456h2.328l.398 4.456zm4.398 4.456h-2.328l.398-4.456h2.328l-.398 4.456zm0-6.456h-2.328l-.398-4.456h2.328l.398 4.456z" fill="#E34F26"/>
  <path d="M16 4H6l2.16 24.12L16 28l7.84-1.88L26 4H16zm0 24l-7.84-1.88L5.736 4h20.528L23.84 26.12 16 28z" fill="#F16529"/>
</svg> 