<?xml version="1.0" encoding="UTF-8"?>
<svg width="32" height="32" viewBox="0 0 32 32" fill="none" xmlns="http://www.w3.org/2000/svg">
  <path d="M15.885 2C8.965 2 8.252 4.138 8.252 4.138l.006 3.234h7.627v.965H6.092S4 7.82 4 15.905c0 8.085 2.59 9.894 2.59 9.894h2.81v-3.782s-.129-2.59 1.935-2.59h7.627s2.006.052 2.006-2.51V7.234s.516-5.234-6.994-5.234zm-4.773 2.194c.836 0 1.514.678 1.514 1.514a1.514 1.514 0 01-3.028 0 1.514 1.514 0 011.514-1.514z" fill="#3776AB"/>
  <path d="M16.115 30c6.92 0 7.633-2.138 7.633-2.138l-.006-3.234h-7.627v-.965h9.793S28 24.18 28 16.095C28 8.01 25.41 6.201 25.41 6.201h-2.81v3.782s.129 2.59-1.935 2.59h-7.627s-2.006-.052-2.006 2.51v4.737s-.516 5.234 6.994 5.234zm4.773-2.194a1.514 1.514 0 01-1.514-1.514 1.514 1.514 0 013.028 0 1.514 1.514 0 01-1.514 1.514z" fill="#FFE873"/>
</svg> 